<svg xmlns="http://www.w3.org/2000/svg" width="1800" height="1100" viewBox="0 0 1800 1100" role="img" aria-label="Ogród po deszczu z instalacją retencyjną">
  <defs>
    <linearGradient id="sky" x1="0" x2="0" y1="0" y2="1">
      <stop stop-color="#dff3f4"/>
      <stop offset="0.48" stop-color="#f7fbef"/>
      <stop offset="1" stop-color="#e8f2dc"/>
    </linearGradient>
    <linearGradient id="tank" x1="0" x2="1">
      <stop stop-color="#0e7490"/>
      <stop offset="1" stop-color="#7cc6bf"/>
    </linearGradient>
  </defs>
  <rect width="1800" height="1100" fill="url(#sky)"/>
  <path d="M0 850 C240 760 420 850 650 790 C860 735 1040 790 1260 735 C1490 675 1640 700 1800 655 L1800 1100 L0 1100 Z" fill="#7aa86a"/>
  <path d="M0 920 C260 835 480 915 730 855 C940 805 1140 860 1370 815 C1580 775 1690 800 1800 770 L1800 1100 L0 1100 Z" fill="#3f7e52"/>
  <rect x="1210" y="445" width="260" height="230" rx="12" fill="#efe6d0"/>
  <path d="M1180 445 L1340 325 L1500 445 Z" fill="#8f4b2f"/>
  <rect x="1270" y="530" width="72" height="145" fill="#5d3827"/>
  <rect x="1380" y="520" width="58" height="58" fill="#9dcbd2"/>
  <path d="M1160 470 C1040 560 990 655 940 760" stroke="#0e7490" stroke-width="18" fill="none" stroke-linecap="round"/>
  <ellipse cx="850" cy="830" rx="230" ry="72" fill="#275e42"/>
  <rect x="700" y="705" width="300" height="130" rx="65" fill="url(#tank)"/>
  <path d="M840 705 C870 660 920 632 990 622" stroke="#d69e2e" stroke-width="14" fill="none" stroke-linecap="round"/>
  <path d="M300 780 C315 690 390 650 440 610 C485 690 520 735 500 820" fill="#24784d"/>
  <path d="M430 840 C455 730 540 680 610 640 C655 745 680 800 660 900" fill="#2f8b5a"/>
  <path d="M1580 745 C1590 680 1645 635 1695 600 C1740 690 1755 730 1735 805" fill="#24784d"/>
  <g stroke="#0e7490" stroke-width="7" stroke-linecap="round" opacity="0.5">
    <path d="M330 155 l-24 72"/>
    <path d="M510 110 l-30 88"/>
    <path d="M710 170 l-26 76"/>
    <path d="M930 95 l-32 98"/>
    <path d="M1120 175 l-26 76"/>
    <path d="M1330 115 l-34 96"/>
    <path d="M1530 170 l-28 84"/>
  </g>
</svg>
